<?xml version="1.0" standalone="no"?>
<!DOCTYPE svg PUBLIC "-//W3C//DTD SVG 20010904//EN"
 "http://www.w3.org/TR/2001/REC-SVG-20010904/DTD/svg10.dtd">
<svg version="1.0" xmlns="http://www.w3.org/2000/svg"
 width="800.000000pt" height="219.000000pt" viewBox="0 0 800.000000 219.000000"
 preserveAspectRatio="xMidYMid meet">
<metadata>
Created by potrace 1.16, written by Peter Selinger 2001-2019
</metadata>
<g transform="translate(0.000000,219.000000) scale(0.100000,-0.100000)"
fill="#000000" stroke="none">
<path d="M6787 2166 c-69 -25 -93 -58 -128 -173 -11 -36 -43 -104 -69 -151
-63 -108 -74 -160 -67 -303 4 -88 15 -152 47 -279 32 -128 43 -191 47 -281 4
-82 2 -118 -6 -123 -16 -10 -610 -60 -618 -52 -4 3 10 59 30 124 44 138 65
268 74 447 7 153 -6 255 -42 325 -16 32 -25 66 -25 97 0 60 -36 139 -79 176
-50 42 -124 39 -218 -10 -74 -37 -88 -58 -58 -83 32 -26 27 -48 -25 -116 -100
-131 -120 -195 -120 -388 0 -123 3 -145 20 -171 11 -16 23 -50 26 -75 9 -58
32 -111 93 -213 79 -132 83 -124 -61 -131 -276 -14 -602 -26 -605 -23 -2 2 2
41 9 86 14 100 0 249 -36 372 l-23 80 31 23 c17 13 63 43 101 66 103 61 145
91 145 103 0 27 -148 -20 -243 -77 -55 -34 -56 -34 -63 -13 -3 12 -28 60 -54
107 -26 47 -60 116 -75 154 -26 61 -47 87 -61 74 -2 -3 2 -22 9 -44 8 -21 17
-60 21 -87 4 -26 18 -79 32 -119 13 -39 24 -86 24 -104 0 -37 -37 -87 -81
-110 -26 -13 -29 -13 -29 2 0 9 16 55 36 101 20 46 33 90 30 98 -8 22 -40 18
-63 -7 -24 -28 -219 -316 -255 -378 -28 -47 -88 -267 -88 -319 l0 -31 -158 0
-158 0 -31 32 c-55 60 -63 78 -63 148 0 85 -23 230 -55 355 -24 93 -139 358
-171 396 -8 8 -14 36 -14 60 0 67 -41 143 -94 174 -24 14 -54 25 -69 25 -83 0
-167 -83 -167 -164 0 -19 -5 -38 -10 -41 -5 -3 -10 -21 -10 -40 0 -21 -13 -54
-33 -86 -31 -50 -32 -56 -31 -153 0 -95 3 -109 46 -221 47 -125 110 -257 184
-386 24 -42 44 -80 44 -85 0 -5 -88 -6 -212 -3 -117 4 -259 7 -315 8 l-103 1
0 88 c0 84 9 134 66 387 22 95 27 147 28 252 l1 132 -56 108 c-31 59 -69 146
-84 193 -32 97 -68 141 -132 160 -62 19 -106 6 -148 -42 -24 -28 -35 -52 -35
-72 0 -17 -9 -47 -19 -67 -10 -19 -21 -61 -25 -92 -3 -37 -16 -75 -33 -105
l-28 -47 1 -205 c0 -243 14 -361 54 -478 19 -54 30 -105 30 -140 l0 -55 -187
7 c-104 3 -230 9 -282 12 l-93 7 5 34 c3 19 31 79 61 133 30 54 65 131 77 172
12 40 31 90 42 111 18 34 19 52 14 165 -4 87 -12 147 -26 192 -23 73 -77 170
-122 215 -34 36 -35 42 -9 75 11 14 20 32 20 40 0 22 -95 77 -157 91 -47 11
-55 10 -100 -12 -63 -31 -102 -99 -103 -176 0 -33 -7 -64 -19 -85 -40 -68 -54
-146 -54 -283 2 -202 26 -374 74 -521 22 -69 39 -127 37 -129 -2 -2 -59 1
-128 6 -69 5 -224 16 -345 24 -120 9 -221 18 -223 20 -2 2 12 30 31 62 84 139
185 369 217 492 33 125 24 231 -25 290 -14 16 -25 41 -25 55 0 15 -7 43 -15
63 -8 19 -15 48 -15 64 0 32 -47 92 -91 115 -36 18 -92 18 -129 -1 -59 -31
-105 -124 -92 -190 3 -19 -2 -34 -21 -53 -32 -34 -138 -264 -165 -357 -32
-111 -52 -221 -62 -348 -12 -138 -19 -158 -58 -152 -24 5 -571 65 -586 65 -3
0 -6 -9 -6 -19 0 -25 -30 -20 522 -77 l57 -6 -32 -48 c-18 -26 -48 -74 -67
-105 -20 -33 -69 -88 -115 -128 -93 -83 -111 -105 -97 -119 21 -21 113 49 305
231 49 45 91 80 94 77 3 -3 12 -49 18 -102 23 -174 55 -140 55 58 l0 121 42
-7 c23 -4 44 -9 46 -11 7 -7 -27 -179 -60 -304 -19 -74 -26 -117 -20 -123 14
-14 37 24 66 108 33 98 50 128 97 171 23 21 55 62 71 90 24 43 34 52 51 48 19
-4 242 -20 587 -43 105 -7 105 -7 102 -32 -7 -50 -112 -398 -162 -540 -29 -80
-54 -155 -57 -167 -8 -33 19 -29 39 4 16 28 168 380 168 389 0 14 93 194 101
194 19 0 32 -48 31 -119 0 -72 0 -74 11 -39 15 47 21 52 46 38 19 -9 21 -8 21
13 0 13 -5 39 -11 56 -8 24 -9 35 0 44 6 6 13 8 17 4 3 -3 48 -108 100 -234
91 -220 133 -303 154 -303 17 0 11 29 -41 189 -64 199 -117 382 -125 433 l-7
39 59 -5 c33 -3 153 -9 267 -12 l209 -6 -5 -27 c-3 -14 -17 -75 -31 -136 -29
-120 -46 -305 -29 -305 16 0 39 54 62 145 21 81 76 234 90 248 11 11 50 -29
57 -59 4 -14 2 -57 -5 -94 -14 -85 -14 -123 -1 -115 5 3 16 27 23 53 8 26 20
47 28 47 7 0 23 -16 35 -35 29 -46 61 -80 75 -80 15 0 5 56 -22 116 -20 47
-26 129 -10 139 5 3 50 -77 99 -177 50 -101 104 -199 121 -218 l30 -35 1 31
c0 18 -11 74 -25 125 -53 197 -73 275 -78 316 l-5 42 217 -5 c119 -2 266 -7
327 -10 l112 -6 36 -51 c19 -29 51 -64 70 -79 27 -22 40 -45 61 -110 35 -105
52 -138 70 -138 20 0 19 16 -9 107 -29 91 -52 182 -59 235 l-6 38 45 0 44 0 0
-92 c0 -97 6 -138 21 -138 17 0 30 43 36 113 3 40 9 78 13 85 4 9 52 -27 154
-118 148 -131 221 -190 238 -190 4 0 8 10 8 22 0 15 -35 56 -108 128 -59 58
-118 124 -131 148 l-22 42 145 0 c164 0 151 8 162 -95 3 -34 15 -75 27 -95 29
-48 107 -130 123 -130 7 0 20 14 29 30 15 29 18 30 80 30 137 0 236 67 310
211 l39 76 359 8 c197 4 360 5 363 3 6 -7 -88 -344 -141 -502 -49 -147 -52
-194 -9 -141 25 31 124 249 189 418 21 53 42 97 47 97 17 0 21 -32 9 -72 -15
-48 -1 -75 22 -43 16 21 25 12 38 -39 6 -23 7 -12 6 39 -1 66 13 115 32 115
13 0 87 -155 165 -342 90 -216 115 -268 132 -268 21 0 17 22 -20 118 -49 126
-200 621 -192 629 2 2 125 13 272 23 148 11 286 22 307 25 35 5 37 4 33 -17
-22 -99 -60 -255 -81 -326 -57 -198 -13 -189 93 18 32 63 73 149 91 190 31 70
34 73 48 55 18 -25 12 -66 -23 -156 -20 -52 -24 -73 -16 -81 15 -15 32 0 72
63 18 27 36 49 40 49 4 0 17 -22 29 -50 12 -27 24 -50 26 -50 3 0 2 49 -2 108
-6 105 -5 108 20 137 l25 30 22 -50 c22 -50 69 -193 89 -272 6 -22 20 -52 32
-65 l20 -23 -5 100 c-3 67 -17 147 -40 239 -20 77 -34 140 -33 141 3 2 961 96
975 95 6 0 12 11 12 24 0 22 -4 24 -32 20 -66 -9 -727 -74 -843 -83 -89 -7
-122 -6 -127 2 -10 15 -3 52 27 147 47 144 59 248 60 480 0 208 -1 217 -24
260 -15 27 -26 68 -29 107 -3 43 -10 67 -23 79 -11 10 -19 29 -19 43 0 46 -20
101 -48 132 -33 36 -98 46 -155 25z"/>
</g>
</svg>
