<?xml version="1.0" standalone="no"?>
<!DOCTYPE svg PUBLIC "-//W3C//DTD SVG 20010904//EN"
 "http://www.w3.org/TR/2001/REC-SVG-20010904/DTD/svg10.dtd">
<svg version="1.0" xmlns="http://www.w3.org/2000/svg"
 width="1024.000000pt" height="334.000000pt" viewBox="0 0 1024.000000 334.000000"
 preserveAspectRatio="xMidYMid meet">
<metadata>
Created by potrace 1.16, written by Peter Selinger 2001-2019
</metadata>
<g transform="translate(0.000000,334.000000) scale(0.100000,-0.100000)"
fill="#FFFFFF" stroke="none">
<path d="M0 1670 l0 -1670 5120 0 5120 0 0 1670 0 1670 -5120 0 -5120 0 0
-1670z m5880 1436 c0 -8 -4 -18 -10 -21 -22 -13 -9 -27 19 -22 24 5 31 2 36
-13 3 -11 4 -24 0 -30 -8 -12 26 -59 43 -60 7 0 15 -7 18 -15 4 -8 12 -15 18
-15 7 0 21 -6 31 -14 18 -13 18 -14 -5 -52 -13 -21 -20 -36 -15 -32 12 11 35
-11 35 -32 0 -21 52 -43 77 -33 9 4 21 -1 29 -12 8 -10 14 -15 14 -11 0 15 32
-18 41 -41 5 -13 20 -28 34 -33 14 -5 25 -11 25 -12 9 -60 13 -84 16 -87 2 -2
19 -5 39 -7 39 -3 115 -58 115 -83 0 -12 5 -10 19 8 10 13 23 21 28 18 19 -12
22 -71 6 -125 -12 -44 -20 -55 -48 -66 -18 -8 -36 -19 -39 -25 -4 -6 -16 -11
-27 -11 -21 0 -37 -31 -45 -91 -5 -31 -2 -39 17 -49 12 -7 55 -40 96 -74 78
-64 104 -84 242 -188 46 -35 119 -92 161 -128 92 -77 196 -158 305 -236 64
-46 91 -59 135 -65 62 -9 126 -35 134 -55 15 -40 -47 -123 -119 -160 -30 -15
-55 -32 -55 -39 0 -6 20 -32 44 -58 24 -26 59 -69 77 -96 19 -27 53 -62 76
-78 23 -15 47 -40 54 -56 12 -29 19 -33 35 -18 5 6 30 11 57 12 26 2 47 5 47
9 0 3 -18 16 -41 30 -44 27 -64 56 -74 112 -7 38 7 76 51 134 23 32 116 84
149 84 42 0 115 -64 115 -101 0 -14 -17 -17 -131 -21 -137 -4 -149 -8 -149
-53 0 -37 44 -107 85 -137 40 -28 43 -28 95 -17 30 6 65 20 77 32 13 11 26 17
30 14 12 -12 -30 -47 -69 -57 -21 -6 -38 -14 -38 -19 0 -4 55 -8 121 -10 l122
-2 -9 23 c-5 13 -9 75 -10 138 -2 168 0 160 -30 160 -31 0 -28 23 4 28 20 3
22 9 22 69 0 48 5 72 17 85 40 44 54 9 31 -77 -17 -61 2 -81 73 -78 46 2 49 1
39 -17 -8 -16 -21 -20 -58 -20 -47 0 -48 -1 -58 -38 -6 -22 -7 -47 -3 -58 3
-10 2 -27 -3 -36 -5 -11 -5 -25 0 -35 5 -10 12 -35 16 -56 10 -54 31 -59 84
-21 13 10 22 12 22 5 0 -6 -16 -21 -35 -33 -19 -13 -35 -26 -35 -30 0 -5 29
-8 64 -8 46 0 67 4 77 16 9 11 12 56 11 170 -1 141 1 155 18 164 15 8 21 6 28
-7 9 -15 14 -15 60 5 54 23 88 27 111 13 27 -17 -4 -40 -42 -32 -41 10 -83 -2
-113 -30 -22 -20 -23 -28 -21 -134 2 -95 -1 -116 -15 -132 -10 -11 -18 -22
-18 -25 0 -3 79 -5 175 -5 96 0 175 2 175 3 0 2 -20 15 -44 29 -51 30 -76 80
-76 148 0 32 9 53 36 90 61 83 145 116 207 80 35 -21 80 -80 71 -94 -3 -5 -56
-9 -117 -10 -165 -1 -177 -8 -162 -86 7 -38 67 -110 102 -124 30 -11 119 7
156 33 21 15 27 16 27 5 0 -20 -18 -33 -67 -48 -52 -15 -56 -29 -7 -29 19 0
45 -5 56 -11 15 -8 26 -8 44 1 12 7 32 10 43 7 31 -8 34 7 11 48 -11 20 -18
45 -15 55 19 61 96 110 195 125 62 10 65 11 68 40 4 39 -28 70 -85 83 -37 9
-46 7 -78 -16 -26 -18 -38 -23 -46 -15 -18 18 61 53 120 53 39 0 56 -6 81 -27
43 -36 51 -61 57 -186 5 -103 4 -109 -18 -133 l-22 -24 44 0 c25 0 55 -7 68
-16 21 -15 24 -15 39 0 16 15 16 20 12 309 0 20 -5 27 -20 27 -11 0 -20 5 -20
11 0 6 9 13 20 16 17 5 20 14 20 70 0 68 12 103 34 103 21 0 25 -22 14 -72
-20 -88 2 -113 91 -101 l46 6 -19 -22 c-15 -16 -30 -21 -73 -21 -53 0 -53 0
-54 -32 -5 -106 5 -202 24 -225 15 -20 48 -15 74 9 13 12 26 19 29 15 12 -12
-14 -32 -64 -50 -34 -13 -52 -25 -56 -40 -7 -29 9 -44 29 -27 13 11 23 11 51
1 21 -7 51 -10 73 -6 33 5 38 10 33 27 -5 19 -2 20 114 14 174 -9 196 -9 227
-1 23 6 27 4 27 -12 0 -30 36 -70 75 -83 38 -12 44 -24 19 -34 -24 -9 -74 -7
-74 3 0 6 -15 4 -33 -4 -23 -9 -45 -11 -69 -6 -20 5 -42 5 -49 0 -8 -4 -88 -8
-179 -8 -91 0 -288 0 -438 -1 -262 -1 -274 0 -302 20 -17 12 -30 30 -30 40 0
10 -7 21 -16 24 -35 13 -36 4 -4 -29 29 -30 32 -37 20 -45 -22 -14 -53 -12
-78 6 -21 15 -24 15 -35 0 -11 -15 -88 -16 -812 -16 -440 1 -811 1 -825 0 -25
0 -143 1 -190 2 -14 0 -206 -1 -426 -2 -275 -1 -408 2 -422 9 -27 14 -68 14
-95 -1 -16 -8 -103 -10 -307 -8 -157 2 -296 3 -310 3 -14 0 -142 -1 -285 -1
-408 0 -563 -2 -810 -8 -222 -5 -231 -6 -245 -27 -56 -81 -107 -115 -189 -126
-40 -5 -49 -3 -78 23 -18 16 -33 36 -33 43 0 15 16 17 25 3 3 -5 14 -10 24
-10 11 0 21 -9 24 -21 5 -19 11 -21 57 -17 44 4 58 11 96 49 49 48 57 79 22
80 -13 0 -224 2 -470 4 -262 2 -455 8 -465 14 -10 5 -24 6 -34 0 -9 -4 -115
-8 -235 -8 -121 0 -259 -1 -309 -2 -49 -1 -133 -1 -185 0 -52 0 -142 1 -200 1
-74 0 -112 4 -125 13 -14 11 -27 12 -54 4 -20 -6 -85 -12 -145 -14 -86 -3
-119 -1 -154 13 -38 14 -50 15 -86 4 -63 -20 -146 -22 -173 -5 -29 19 -52 19
-75 -2 -15 -13 -37 -16 -120 -14 -108 2 -132 11 -126 46 4 19 1 20 -36 15 -35
-4 -41 -8 -41 -30 0 -22 -5 -26 -45 -30 -25 -3 -62 0 -84 7 -21 7 -47 13 -57
13 -10 0 -25 10 -33 22 -13 19 -17 20 -33 7 -10 -8 -25 -23 -34 -33 -12 -15
-22 -17 -45 -11 -46 13 -97 12 -127 -2 -25 -13 -29 -12 -52 13 -20 22 -29 25
-57 19 -18 -4 -41 -16 -51 -26 -14 -15 -22 -17 -37 -9 -16 9 -17 15 -8 40 5
17 14 33 19 36 5 3 9 14 9 24 0 27 10 29 50 12 19 -8 61 -16 92 -18 52 -4 57
-2 60 19 2 16 9 21 25 19 12 -2 24 2 28 8 4 6 56 10 135 10 l128 0 6 143 c4
78 5 192 3 252 l-5 110 -68 8 c-38 4 -81 5 -96 2 -15 -2 -30 1 -34 6 -19 31
76 38 213 14 64 -11 108 -12 163 -6 41 4 77 7 78 5 2 -1 -8 -10 -23 -20 -19
-13 -44 -16 -100 -15 -49 1 -76 -2 -81 -10 -4 -7 -8 -112 -9 -233 0 -122 -3
-228 -5 -236 -4 -12 8 -15 60 -17 36 -2 97 0 137 3 87 7 85 3 89 159 1 61 3
115 3 120 2 28 -8 273 -14 359 -8 104 -4 115 39 116 16 0 17 -5 11 -37 -7 -36
-8 -394 -1 -401 2 -2 20 8 40 22 30 20 49 24 99 24 108 0 125 -27 121 -193 -1
-66 -3 -123 -3 -126 -1 -4 -11 -14 -24 -22 l-23 -15 4 142 c5 165 4 167 -87
174 -53 4 -61 2 -91 -25 -25 -22 -33 -39 -37 -73 -5 -56 -5 -55 3 -113 6 -40
3 -53 -15 -77 -11 -16 -21 -32 -21 -34 0 -3 82 -6 182 -7 101 -1 201 -2 223
-2 22 0 63 0 90 1 65 1 71 1 343 2 127 0 232 4 232 8 0 4 -27 14 -60 21 l-61
14 20 21 c16 18 20 38 21 131 3 133 -9 315 -22 332 -6 8 -2 15 13 24 30 15
242 7 264 -11 26 -21 17 -47 -31 -86 l-46 -38 22 -18 c12 -10 38 -22 58 -28
21 -5 51 -18 67 -28 34 -21 75 -96 75 -138 0 -41 -55 -125 -105 -159 -24 -16
-41 -33 -39 -37 3 -4 63 -7 134 -7 126 0 129 0 112 19 -45 49 -45 50 -33 88
23 75 80 112 196 129 54 7 60 11 63 33 4 35 -42 76 -93 84 -33 6 -46 3 -74
-19 -23 -17 -38 -22 -45 -15 -25 25 97 68 156 55 18 -4 45 -19 60 -34 22 -22
28 -40 37 -111 6 -46 11 -108 11 -137 0 -45 -4 -55 -25 -69 -20 -13 -23 -20
-14 -30 8 -10 16 -11 30 -4 10 6 35 8 56 5 21 -3 70 -2 108 3 l70 8 -49 24
c-60 30 -87 64 -96 124 -11 73 37 159 110 196 40 21 160 29 160 11 0 -21 -35
-34 -99 -35 -65 -1 -72 -3 -105 -35 -34 -33 -36 -39 -36 -97 0 -61 1 -62 50
-108 45 -42 54 -46 98 -46 36 0 59 7 86 25 29 20 37 22 34 10 -3 -16 -28 -33
-82 -54 -21 -9 -26 -15 -18 -23 13 -13 178 4 194 20 16 16 12 377 -7 618 -6
77 -5 93 10 107 9 9 21 17 26 17 5 0 9 -116 9 -285 0 -157 4 -285 8 -285 5 0
46 38 93 85 77 78 109 100 109 76 0 -5 -34 -41 -77 -79 l-76 -70 41 -47 c39
-45 124 -95 159 -95 11 0 14 -8 11 -30 l-4 -30 63 1 c35 1 63 4 63 9 0 4 -9
15 -19 24 -26 23 -30 76 -15 166 8 41 14 89 14 107 0 22 6 36 21 43 31 17 34
6 16 -60 -10 -33 -17 -95 -17 -138 0 -65 3 -82 19 -96 26 -23 53 -14 114 37
70 58 81 84 73 177 -6 64 -4 79 9 90 10 8 19 10 25 4 5 -5 11 -84 13 -176 1
-92 5 -170 9 -173 3 -3 33 -7 67 -9 l62 -4 -31 34 c-43 49 -38 76 23 141 22
24 44 35 86 43 137 27 126 22 123 55 -8 68 -96 105 -153 65 -16 -12 -39 -20
-52 -18 -19 3 -17 6 18 25 77 40 148 39 194 -4 30 -28 38 -60 46 -179 7 -103
6 -110 -14 -128 -12 -11 -21 -23 -21 -27 0 -9 459 -9 465 1 2 4 -12 18 -32 31
-93 61 -94 157 -2 254 23 25 49 45 56 45 8 0 25 7 38 16 24 15 47 15 121 -1
l31 -7 -4 159 c-1 87 -6 172 -9 188 -4 23 -1 35 15 49 37 34 43 14 35 -132 -3
-76 -6 -146 -6 -157 1 -100 11 -302 17 -351 6 -52 5 -62 -10 -68 -9 -3 -24 -2
-33 3 -20 11 -102 -16 -102 -34 0 -7 6 -18 14 -24 12 -10 20 -9 40 4 19 13 36
15 63 11 50 -9 74 -9 158 1 l70 8 8 60 c4 33 14 98 22 145 8 47 15 117 15 155
0 64 -4 76 -39 135 -87 144 -118 207 -125 250 -7 46 -38 90 -64 90 -9 0 -23
-7 -33 -16 -10 -9 -34 -20 -55 -24 -30 -7 -40 -5 -52 8 -12 16 -13 15 -9 -5 4
-17 -1 -23 -22 -28 -22 -5 -26 -11 -26 -38 0 -32 0 -32 -50 -31 -27 0 -66 8
-86 17 -35 16 -38 15 -59 -3 -13 -11 -29 -20 -36 -20 -30 0 -63 62 -50 95 5
14 -9 20 -41 16 -18 -2 -26 18 -13 34 10 12 9 20 -4 40 -28 43 -20 82 17 76 4
0 7 9 7 22 0 38 27 67 63 67 18 0 39 5 47 11 13 9 13 12 -4 22 -10 7 -34 24
-53 39 -19 15 -43 30 -53 33 -24 8 -28 21 -36 113 -6 76 -6 78 24 110 22 23
39 32 64 32 18 1 44 7 57 14 l24 14 -41 26 c-43 27 -62 52 -62 82 0 10 -12 35
-26 55 -24 36 -25 39 -9 62 11 18 14 36 9 61 -9 53 18 106 55 106 28 0 77 40
65 53 -16 16 42 46 90 47 61 0 126 19 126 37 0 7 9 13 19 13 11 0 28 11 39 25
12 16 30 25 47 25 24 0 26 2 20 30 -5 22 -3 30 7 30 7 0 30 9 51 20 20 11 56
23 80 26 23 2 52 11 64 19 12 8 31 15 42 15 11 0 22 4 25 9 12 18 77 23 95 7
16 -15 22 -15 61 -1 59 21 68 19 72 -12 2 -19 8 -27 18 -25 71 17 80 15 80
-12 0 -42 40 -35 65 11 23 42 33 48 100 61 72 14 75 13 75 -2z m-4181 -1852
c18 -9 41 -30 51 -47 30 -48 13 -59 -84 -56 -146 4 -174 1 -186 -22 -18 -34
14 -112 63 -155 40 -35 44 -36 100 -30 35 3 70 14 87 26 34 24 41 25 33 5 -9
-25 -59 -45 -126 -52 -55 -5 -69 -2 -115 21 -54 27 -70 48 -83 105 -14 64 41
155 119 196 55 28 97 31 141 9z m3009 -1 c-3 -15 -14 -18 -63 -18 -44 0 -67
-5 -87 -20 -27 -20 -27 -21 -28 -140 0 -114 -7 -145 -31 -145 -5 0 -6 35 -3
78 5 92 5 80 -4 165 -7 67 -2 87 25 87 7 0 13 -7 13 -15 0 -19 -1 -19 51 5 24
11 63 20 87 20 36 0 43 -3 40 -17z"/>
<path d="M5340 1859 c-14 -25 -19 -163 -7 -175 4 -4 22 0 40 10 l32 19 -32
-34 c-17 -19 -32 -45 -34 -59 -3 -28 10 -110 18 -110 8 0 102 100 113 120 6
10 10 35 10 54 0 32 -3 36 -27 37 -27 0 -27 1 -5 9 50 21 6 129 -53 130 -12 0
-26 5 -32 11 -8 8 -14 5 -23 -12z"/>
<path d="M5223 1709 c-26 -7 -33 -15 -33 -34 0 -42 36 -121 81 -179 41 -53 44
-55 47 -31 3 24 -30 189 -45 225 -3 8 -5 18 -5 23 2 8 -3 8 -45 -4z"/>
<path d="M5638 1693 c-6 -8 -24 -21 -40 -29 -32 -17 -140 -111 -169 -149 -20
-24 -21 -43 -25 -320 -6 -333 -15 -298 78 -295 30 1 56 -5 74 -17 16 -10 25
-13 21 -6 -5 8 1 15 18 19 l25 6 0 293 c0 327 5 305 -72 305 l-41 0 19 21 c10
12 31 27 46 35 15 8 54 36 86 63 33 28 63 47 66 43 4 -3 3 4 -2 17 -10 28 -64
37 -84 14z"/>
<path d="M5901 1441 c-10 -7 -14 -40 -15 -137 l-1 -129 71 -3 72 -3 4 103 c2
57 1 119 -2 138 -5 35 -6 35 -60 38 -30 1 -61 -2 -69 -7z"/>
<path d="M6143 1443 l-43 -4 0 -135 0 -135 68 3 67 3 3 129 c3 133 -1 148 -38
144 -8 -1 -34 -3 -57 -5z"/>
<path d="M6735 1438 c-3 -8 -4 -110 -3 -228 l3 -215 175 0 175 0 3 208 c1 123
-2 215 -8 226 -8 17 -25 19 -175 20 -129 2 -166 -1 -170 -11z"/>
<path d="M2128 1432 c-31 -4 -43 -39 -33 -96 7 -36 8 -36 49 -30 53 8 98 34
113 65 10 20 10 27 -5 40 -18 17 -77 27 -124 21z"/>
<path d="M7180 1421 c-33 -6 -35 -9 -42 -53 -3 -27 -3 -69 0 -95 6 -40 11 -48
34 -54 43 -11 103 9 143 49 103 103 33 183 -135 153z"/>
<path d="M2111 1271 c-9 -6 -13 -142 -9 -261 1 -14 0 -32 -3 -40 -6 -21 54
-39 134 -39 58 -1 73 3 102 25 40 30 65 88 65 148 0 59 -35 101 -115 136 -59
27 -154 43 -174 31z"/>
<path d="M4806 1187 c-52 -53 -63 -84 -47 -137 22 -74 104 -120 188 -107 64
11 73 29 76 149 1 64 -2 111 -8 117 -6 6 -45 14 -87 17 l-76 7 -46 -46z"/>
<path d="M7144 1176 c-3 -8 -4 -72 -2 -143 l4 -128 44 -6 c25 -4 50 -8 55 -10
6 -2 33 1 60 6 28 4 65 7 83 6 35 -3 40 9 17 37 -8 9 -38 43 -65 75 -28 31
-50 62 -50 67 0 11 -117 110 -131 110 -5 0 -12 -6 -15 -14z"/>
<path d="M4258 1099 c-7 -3 -30 -9 -51 -13 -29 -6 -43 -16 -62 -46 -33 -52
-32 -83 0 -98 39 -18 69 -15 129 13 59 27 66 37 66 100 0 41 -1 43 -35 47 -19
2 -40 1 -47 -3z"/>
<path d="M2637 1076 c-52 -29 -78 -70 -63 -101 9 -19 20 -24 64 -27 106 -9
164 32 155 110 l-5 42 -57 -1 c-37 -1 -69 -8 -94 -23z"/>
<path d="M8935 1088 c-49 -27 -75 -61 -75 -100 0 -33 4 -40 28 -50 61 -25 154
-4 191 44 17 21 20 35 15 72 l-7 46 -66 0 c-36 0 -75 -6 -86 -12z"/>
<path d="M3357 1054 c-3 -4 -4 -26 0 -50 4 -31 1 -50 -11 -68 -9 -14 -16 -27
-16 -28 0 -2 52 -4 115 -5 63 -2 115 0 115 3 0 9 -55 53 -67 54 -7 0 -32 17
-55 37 -68 59 -74 63 -81 57z"/>
</g>
</svg>
