<?xml version="1.0" standalone="no"?>
<!DOCTYPE svg PUBLIC "-//W3C//DTD SVG 20010904//EN"
 "http://www.w3.org/TR/2001/REC-SVG-20010904/DTD/svg10.dtd">
<svg version="1.0" xmlns="http://www.w3.org/2000/svg"
 width="1280.000000pt" height="418.000000pt" viewBox="0 0 1280.000000 418.000000"
 preserveAspectRatio="xMidYMid meet">
<metadata>
Created by potrace 1.16, written by Peter Selinger 2001-2019
</metadata>
<g transform="translate(0.000000,418.000000) scale(0.100000,-0.100000)"
fill="#000000" stroke="none">
<path d="M7250 3884 c-52 -11 -70 -20 -92 -46 -76 -91 -92 -98 -110 -47 -11
31 -11 31 -65 25 -53 -6 -53 -6 -59 24 -7 34 -18 36 -87 15 -43 -13 -52 -13
-77 0 -36 19 -74 19 -108 1 -37 -19 -131 -53 -167 -60 -16 -4 -63 -19 -102
-34 -73 -27 -73 -27 -73 -64 0 -35 -2 -38 -28 -38 -17 0 -37 -9 -48 -21 -10
-12 -34 -28 -51 -36 -18 -7 -33 -17 -33 -22 0 -15 -54 -32 -131 -41 -88 -10
-141 -32 -133 -55 8 -20 -37 -59 -85 -73 -49 -15 -76 -65 -67 -123 4 -25 1
-52 -9 -76 -14 -34 -14 -38 6 -72 12 -20 29 -58 38 -86 13 -41 25 -56 68 -85
29 -19 51 -39 49 -45 -2 -10 -56 -29 -110 -40 -16 -4 -45 -22 -64 -41 l-35
-35 7 -84 c7 -90 22 -145 38 -145 14 0 158 -102 158 -112 0 -11 -36 -25 -82
-33 -42 -7 -68 -36 -68 -76 0 -20 -6 -28 -25 -33 -30 -8 -32 -33 -9 -78 10
-20 14 -42 9 -64 -6 -33 -5 -34 30 -34 33 0 35 -2 35 -35 0 -42 22 -90 45 -99
9 -3 33 4 54 16 38 21 39 22 91 5 29 -9 74 -17 101 -17 46 0 49 2 49 25 0 25
31 65 50 65 6 0 10 12 10 27 0 25 1 26 20 8 23 -21 77 -14 126 16 66 40 102
13 138 -104 13 -41 55 -131 93 -199 114 -200 106 -174 100 -323 -3 -71 -12
-168 -21 -215 -8 -47 -18 -108 -21 -136 l-7 -52 -56 -8 c-31 -4 -111 -8 -177
-9 -78 0 -128 -4 -142 -13 -29 -16 -63 0 -63 28 0 30 55 54 124 53 l59 -1 -9
106 c-5 59 -9 257 -9 441 0 229 -3 335 -11 338 -6 2 -18 -4 -26 -14 -15 -16
-15 -43 -6 -251 5 -129 8 -236 5 -238 -2 -3 -24 0 -48 5 -61 14 -119 13 -149
-3 -23 -13 -20 -14 45 -21 39 -4 87 -11 108 -17 l39 -9 -4 -144 c-3 -134 -5
-146 -25 -167 -28 -27 -135 -38 -186 -17 -77 31 -127 97 -127 167 0 55 10 75
73 140 28 28 46 52 39 52 -22 0 -98 -78 -126 -131 -24 -43 -28 -59 -24 -107 5
-54 8 -59 62 -109 32 -28 55 -57 51 -62 -7 -12 -567 -16 -578 -5 -4 4 5 20 18
36 20 24 25 40 25 86 0 98 -20 235 -38 266 -40 69 -135 87 -233 45 -29 -13
-47 -25 -41 -27 6 -2 29 6 51 17 50 26 97 27 138 1 42 -25 65 -62 61 -97 -3
-30 -22 -38 -152 -63 -48 -10 -68 -21 -107 -57 -78 -73 -80 -113 -11 -187 l27
-29 -84 6 c-51 4 -88 12 -93 19 -4 7 -8 63 -9 123 -1 147 -12 291 -22 302 -5
4 -15 -1 -23 -11 -10 -14 -12 -38 -7 -91 8 -102 -1 -139 -49 -191 -50 -54
-124 -104 -154 -104 -13 0 -32 12 -44 28 -21 25 -22 35 -17 132 3 58 11 131
18 162 14 61 8 81 -17 57 -16 -17 -44 -196 -44 -290 0 -43 5 -62 25 -89 13
-18 22 -37 19 -41 -3 -5 -41 -9 -84 -9 l-79 0 6 34 c5 31 3 33 -27 40 -49 9
-144 71 -190 123 -22 25 -40 49 -40 54 0 4 42 49 93 98 50 50 87 91 81 91 -7
0 -63 -48 -125 -107 l-114 -108 -6 90 c-4 50 -7 208 -8 352 -1 154 -5 264 -11
268 -5 3 -16 -5 -25 -19 -15 -22 -15 -42 -6 -178 17 -250 24 -521 16 -623 -7
-92 -8 -97 -33 -107 -15 -5 -73 -12 -129 -15 -87 -5 -103 -4 -103 9 0 8 22 25
50 38 27 13 58 32 67 42 13 15 7 14 -27 -6 -35 -20 -59 -26 -107 -26 -58 0
-64 2 -116 45 -64 52 -81 91 -75 172 4 48 10 60 46 96 41 40 44 42 125 48 87
7 132 22 121 41 -10 16 -139 1 -182 -21 -43 -22 -93 -73 -115 -116 -55 -109
-13 -221 102 -275 28 -13 51 -27 51 -31 0 -7 -74 -15 -238 -23 -77 -4 -94 -2
-99 11 -4 9 4 23 22 37 25 20 27 26 26 101 -2 240 -47 331 -159 329 -55 -1
-119 -18 -146 -39 -35 -27 -8 -28 38 -1 53 31 86 32 142 7 46 -21 74 -54 74
-87 0 -28 -16 -41 -65 -49 -136 -23 -213 -63 -245 -129 -27 -57 -25 -79 10
-119 16 -19 27 -37 23 -41 -10 -9 -323 -7 -323 3 0 5 24 29 54 55 63 53 115
129 123 180 4 27 -1 49 -22 91 -30 63 -68 95 -139 119 -47 15 -116 55 -116 66
0 3 19 19 41 35 74 54 94 102 51 121 -24 10 -305 17 -319 7 -8 -6 -9 -21 -1
-58 6 -28 11 -156 12 -286 1 -213 -1 -239 -17 -256 -9 -11 -17 -22 -17 -25 0
-3 26 -11 58 -17 58 -12 91 -26 81 -35 -10 -10 -951 -19 -1152 -11 l-198 7 23
37 c20 32 23 49 23 156 0 102 3 125 20 154 31 53 78 72 155 64 100 -10 100
-11 100 -214 l0 -171 22 14 c22 15 23 23 26 157 4 226 -11 252 -142 253 -64 0
-83 -4 -120 -26 -25 -14 -50 -26 -56 -26 -9 0 -11 72 -9 273 2 263 2 272 -17
269 -10 -2 -23 -7 -28 -12 -5 -5 -4 -99 3 -222 12 -238 13 -535 2 -616 -12
-84 -17 -86 -196 -91 -124 -2 -156 0 -160 10 -3 8 -2 146 3 307 6 244 10 294
22 302 8 5 53 10 100 10 57 1 93 6 110 16 23 14 18 14 -70 9 -64 -4 -128 -1
-197 9 -146 23 -263 21 -263 -4 0 -4 55 -10 121 -13 67 -3 124 -8 126 -11 11
-10 15 -269 8 -447 l-7 -186 -157 -7 c-161 -7 -234 -22 -239 -50 -2 -8 -11
-18 -21 -21 -22 -7 -156 12 -181 25 -31 16 -50 12 -50 -12 0 -12 -7 -29 -15
-38 -8 -9 -17 -30 -21 -47 -8 -42 16 -49 62 -18 49 34 100 33 135 -1 24 -23
30 -24 50 -14 16 9 52 11 115 7 l92 -5 33 34 c38 40 45 41 67 14 21 -26 115
-50 192 -50 58 0 60 1 74 34 12 28 20 34 52 38 48 6 54 3 54 -28 0 -36 33 -44
168 -44 87 1 122 4 136 15 25 19 54 19 99 0 47 -19 89 -19 183 2 72 16 79 15
146 -2 60 -15 89 -17 202 -10 72 5 156 7 186 6 30 -2 366 -5 745 -7 1017 -6
1807 -14 1833 -20 36 -7 26 -41 -30 -101 -29 -31 -44 -51 -33 -45 12 6 48 39
81 75 l59 64 100 8 c78 6 2155 27 2395 24 30 0 800 -1 1711 -2 1386 -2 1660 0
1682 12 22 12 28 11 48 -3 25 -17 66 -21 87 -7 11 6 7 16 -17 43 -31 35 -39
58 -22 58 24 0 43 -15 56 -46 28 -69 7 -67 694 -59 339 3 641 6 671 6 64 -1
100 6 100 18 0 4 -18 16 -41 26 -44 20 -89 67 -89 93 0 15 -23 17 -225 20
-220 3 -225 2 -225 -17 0 -27 -36 -36 -108 -27 -68 9 -69 9 -105 0 -27 -6 -28
-5 -25 27 3 29 10 37 48 56 77 38 103 53 97 59 -3 3 -19 -4 -35 -16 -18 -14
-40 -20 -58 -18 -47 5 -58 42 -59 198 l0 135 60 6 c112 12 133 39 30 39 -58 0
-66 3 -81 25 -15 23 -15 35 -5 97 12 73 6 96 -22 85 -18 -7 -27 -51 -27 -128
0 -52 -3 -60 -26 -76 l-26 -16 26 -14 26 -14 0 -198 c0 -187 -1 -199 -20 -216
-19 -18 -23 -18 -48 -3 -15 9 -53 19 -84 23 l-57 7 24 33 c20 26 25 44 25 91
0 92 -18 220 -34 253 -22 42 -66 70 -122 78 -55 7 -55 -11 1 -21 19 -4 48 -18
65 -33 27 -22 31 -31 28 -66 -3 -45 -3 -45 -113 -69 l-60 -13 90 -5 90 -5 3
-63 c3 -61 2 -65 -32 -96 -42 -40 -109 -60 -176 -54 -70 7 -93 30 -87 86 3 32
14 53 38 79 23 24 27 32 13 25 -12 -6 -35 -27 -53 -47 -34 -39 -39 -75 -16
-115 8 -14 14 -35 15 -46 0 -18 -8 -22 -52 -28 -71 -9 -64 -9 -140 5 -73 13
-84 24 -40 39 64 24 102 44 102 55 0 8 -17 4 -47 -11 -27 -13 -74 -27 -105
-30 -47 -6 -62 -3 -91 15 -74 45 -137 180 -104 224 15 22 111 36 249 37 48 0
89 4 92 9 9 14 -51 89 -83 106 -73 37 -171 4 -238 -81 -46 -59 -55 -82 -55
-136 1 -73 34 -134 94 -171 26 -16 48 -34 48 -38 0 -5 -99 -9 -220 -9 -231 0
-240 2 -202 43 14 16 18 45 22 166 3 80 9 152 13 159 17 26 89 54 136 52 65
-3 81 -1 81 10 0 5 -10 14 -21 21 -18 9 -38 6 -106 -16 -81 -27 -84 -27 -97
-9 -11 15 -17 16 -29 6 -12 -10 -16 -49 -18 -206 -3 -145 -7 -197 -18 -209
-10 -13 -32 -17 -97 -17 -46 0 -84 4 -84 9 0 5 17 23 38 41 20 17 26 24 12 16
-13 -9 -37 -16 -52 -16 -25 0 -29 5 -47 68 -15 50 -19 87 -16 149 5 105 14
123 65 123 45 0 90 15 90 30 0 5 -21 10 -47 10 -101 0 -113 17 -93 125 7 36 9
72 6 81 -6 15 -9 14 -30 -5 -21 -19 -25 -36 -31 -108 -7 -79 -9 -85 -34 -95
l-26 -10 25 -11 c14 -6 27 -13 30 -15 3 -2 8 -83 12 -180 3 -97 9 -187 13
-198 7 -21 6 -21 -137 -16 -79 2 -150 8 -158 12 -10 6 1 15 40 33 30 13 61 31
69 41 10 12 0 9 -35 -9 -72 -37 -143 -43 -187 -16 -63 39 -117 126 -117 189 0
28 5 42 18 48 9 4 84 12 167 18 177 13 186 20 112 90 -62 60 -86 64 -162 27
-189 -94 -232 -277 -86 -373 61 -40 65 -58 14 -58 -21 -1 -56 -7 -78 -15 -37
-14 -41 -13 -50 3 -5 9 -46 53 -90 97 -85 85 -228 257 -233 281 -2 8 17 25 44
41 101 59 183 158 169 203 -9 27 -90 61 -182 75 -64 10 -214 114 -493 340
-114 93 -248 198 -575 450 l-116 90 5 48 c9 84 26 102 152 168 31 16 46 55 52
135 5 82 -6 99 -44 63 -13 -12 -24 -18 -24 -12 0 36 -117 112 -172 113 -23 0
-27 5 -33 43 -10 66 -14 73 -40 85 -13 6 -36 29 -50 52 -14 22 -31 40 -39 40
-7 0 -19 7 -26 15 -7 8 -28 15 -47 15 -45 0 -72 15 -84 47 -5 14 -18 27 -29
30 -24 6 -25 4 1 48 25 42 20 62 -21 76 -16 6 -30 15 -30 20 0 5 -13 15 -28
23 -32 17 -52 54 -52 96 0 28 -2 30 -40 30 -28 0 -40 4 -40 14 0 8 5 18 10 21
14 9 12 35 -2 34 -7 -1 -42 -7 -78 -15z m-498 -1550 c59 -13 112 -118 79 -158
-9 -11 -8 -15 4 -20 11 -4 15 -20 15 -54 0 -55 -24 -94 -104 -172 -56 -54 -65
-48 -72 46 -6 63 -4 72 20 107 24 34 24 37 5 26 -36 -19 -44 3 -42 106 2 106
14 140 46 131 12 -4 34 -9 49 -12z m-138 -282 c30 -124 44 -242 29 -242 -17 0
-89 101 -122 170 -38 80 -48 125 -31 145 11 14 57 32 86 34 6 1 23 -48 38
-107z m530 69 c10 -11 16 -24 15 -29 -5 -11 -111 -92 -199 -152 -33 -23 -60
-45 -60 -51 0 -6 15 -10 33 -9 71 4 76 2 87 -39 6 -25 9 -164 8 -378 l-3 -338
-22 -3 c-13 -2 -23 -10 -23 -18 0 -18 -4 -18 -42 2 -19 10 -55 16 -94 15 -103
-1 -97 -25 -92 383 4 299 7 356 21 382 20 39 107 119 211 196 87 64 129 74
160 39z m382 -315 c18 -13 19 -26 17 -177 -1 -89 -4 -164 -7 -166 -2 -3 -46
-1 -97 3 l-92 7 5 160 c5 140 8 162 24 174 24 17 125 17 150 -1z m262 2 c8 -8
12 -62 12 -175 l0 -163 -29 0 c-15 0 -56 -3 -90 -6 l-61 -7 0 176 0 176 43 4
c88 8 113 7 125 -5z m1062 -8 c6 -8 10 -134 10 -288 l0 -272 -222 2 -223 3 -3
279 c-2 217 1 282 10 288 7 5 104 7 216 6 167 -3 204 -6 212 -18z m-6060 -13
c31 -11 35 -16 35 -46 0 -27 -7 -40 -35 -62 -42 -34 -143 -60 -161 -42 -21 21
-24 110 -5 138 15 22 23 25 74 24 31 0 73 -5 92 -12z m6370 -15 c26 -13 37
-26 44 -54 8 -33 6 -43 -20 -85 -37 -60 -107 -104 -173 -111 -82 -8 -97 21
-91 173 3 84 15 93 130 94 52 1 86 -4 110 -17z m-6329 -201 c71 -27 134 -72
154 -110 8 -17 15 -55 15 -88 -1 -103 -58 -186 -141 -204 -50 -12 -159 -3
-206 17 l-33 13 0 148 c0 81 3 172 7 202 l6 54 71 -6 c39 -3 96 -15 127 -26z
m6175 -111 c29 -22 70 -61 93 -87 22 -27 72 -85 110 -131 39 -46 71 -89 71
-96 0 -20 -199 -38 -280 -25 l-67 11 -7 67 c-14 157 -5 301 21 301 3 0 30 -18
59 -40z m-3595 -80 c15 -9 19 -22 19 -63 0 -67 -18 -93 -89 -124 -133 -60
-230 -8 -177 95 23 44 58 70 116 85 67 18 105 20 131 7z m-1916 -42 c12 -80
-26 -131 -109 -148 -59 -12 -154 0 -167 21 -20 33 -9 72 31 110 48 45 82 57
172 58 l67 1 6 -42z m779 -58 c32 -28 73 -58 90 -67 34 -17 86 -62 86 -75 0
-4 -65 -8 -145 -8 -153 0 -161 3 -130 44 10 13 15 44 15 88 0 48 4 68 13 68 6
0 38 -23 71 -50z"/>
<path d="M2013 1580 c-78 -18 -158 -86 -194 -165 -25 -53 -24 -92 4 -145 18
-37 34 -51 86 -77 37 -19 79 -33 100 -33 51 0 152 28 173 47 28 25 14 26 -27
2 -26 -15 -59 -24 -110 -27 l-73 -4 -45 41 c-51 47 -90 127 -85 174 5 48 32
57 190 57 144 0 168 4 168 26 0 23 -68 91 -98 98 -15 4 -34 8 -42 10 -8 2 -29
0 -47 -4z"/>
<path d="M5777 1579 c-21 -5 -51 -16 -67 -24 -37 -19 -50 -19 -50 0 0 8 -9 15
-19 15 -18 0 -19 -10 -17 -195 0 -124 5 -194 11 -192 15 5 24 71 24 190 1 60
6 117 11 128 16 29 64 49 117 49 61 0 95 9 90 24 -5 14 -52 17 -100 5z"/>
</g>
</svg>
